<svg viewBox="0 0 64 64">
  <defs>
    <style>.cls-1{fill:#00a4b5;}.cls-2{fill:#00cde2;}.cls-3{fill:#fff;}</style>
  </defs>
  <title>Info</title>
  <g id="Layer_2" data-name="Layer 2">
    <g id="Layer_1-2" data-name="Layer 1">
      <circle class="cls-1" cx="32" cy="32" r="32" />
      <circle class="cls-2" cx="32" cy="32" r="24" />
      <g id="HGC71j.tif">
        <path class="cls-3"
          d="M24.38,32.89a28.91,28.91,0,0,1,7.1-4.47,12.1,12.1,0,0,1,3.36-1,1.52,1.52,0,0,1,1.82,1.22,6.09,6.09,0,0,1-.11,2.91c-.72,3.07-1.57,6.11-2.35,9.17a6.06,6.06,0,0,0-.29,1.73c0,.49.19.63.67.51a8,8,0,0,0,2.22-1c.32-.2.62-.41.92-.63s.31-.23.55.09l.72,1v.12a4.3,4.3,0,0,0-.62.55,18.9,18.9,0,0,1-8.79,5H28.41a2,2,0,0,1-1.58-1.93,6.78,6.78,0,0,1,.12-2.24c.55-2.66,1.25-5.29,1.86-7.94.21-.92.48-1.83.62-2.77.07-.46-.08-.59-.53-.49a2.91,2.91,0,0,0-.36.1,15.73,15.73,0,0,0-3,1.45c-.22.14-.33.11-.45-.12-.21-.38-.44-.75-.66-1.12Z" />
        <path class="cls-3"
          d="M36.21,16.29a4.27,4.27,0,0,1,1.21.46,3.22,3.22,0,0,1,1.25,3.44A4.24,4.24,0,0,1,35,23.37a3.55,3.55,0,0,1-2.66-.64A2.59,2.59,0,0,1,31.38,21a4,4,0,0,1,1.23-3.66,4.24,4.24,0,0,1,2.24-1.1Z" />
      </g>
    </g>
  </g>
</svg>