<svg width="22" height="22" viewBox="0 0 22 22" fill="none" xmlns="http://www.w3.org/2000/svg">
<path fill-rule="evenodd" clip-rule="evenodd" d="M9.625 2C5.41383 2 2 5.41383 2 9.625C2 13.8362 5.41383 17.25 9.625 17.25C11.7289 17.25 13.6322 16.3992 15.0128 15.0206C16.396 13.6393 17.25 11.7328 17.25 9.625C17.25 5.41383 13.8362 2 9.625 2ZM0 9.625C0 4.30926 4.30926 0 9.625 0C14.9407 0 19.25 4.30926 19.25 9.625C19.25 11.9242 18.4428 14.0363 17.098 15.6913L21.2065 19.7922C21.5973 20.1824 21.5979 20.8156 21.2078 21.2065C20.8176 21.5973 20.1844 21.5979 19.7935 21.2078L15.683 17.1047C14.0292 18.4455 11.9203 19.25 9.625 19.25C4.30926 19.25 0 14.9407 0 9.625Z" fill="#787A80"/>
</svg>
